# Blender 3.3.1
# www.blender.org
mtllib table.mtl
o Bein_2
v -8.353356 -6.961128 -11.833922
v -8.353356 6.961132 -11.833920
v -6.961130 -6.961128 -11.833922
v -6.961130 6.961132 -11.833920
v -6.961130 -6.961128 -13.226149
v -6.961130 6.961133 -13.226147
v -8.353356 -6.961128 -13.226149
v -8.353356 6.961133 -13.226147
v -8.353356 -6.961133 13.226147
v -8.353356 6.961128 13.226149
v -6.961130 -6.961133 13.226147
v -6.961130 6.961128 13.226149
v -6.961130 -6.961132 11.833920
v -6.961130 6.961128 11.833922
v -8.353356 -6.961132 11.833920
v -8.353356 6.961128 11.833922
v 6.961130 -6.961133 13.226147
v 6.961130 6.961128 13.226149
v 8.353356 -6.961133 13.226147
v 8.353356 6.961128 13.226149
v 8.353356 -6.961132 11.833920
v 8.353356 6.961128 11.833922
v 6.961130 -6.961132 11.833920
v 6.961130 6.961128 11.833922
v 6.961130 -6.961128 -11.833922
v 6.961130 6.961132 -11.833920
v 8.353356 -6.961128 -11.833922
v 8.353356 6.961132 -11.833920
v 8.353356 -6.961128 -13.226149
v 8.353356 6.961133 -13.226147
v 6.961130 -6.961128 -13.226149
v 6.961130 6.961133 -13.226147
v -10.622681 6.615520 15.314487
v -10.622681 7.311633 15.314487
v 10.622681 6.615520 15.314487
v 10.622681 7.311633 15.314487
v 10.622681 6.615525 -15.314486
v 10.622681 7.311637 -15.314486
v -10.622681 6.615525 -15.314486
v -10.622681 7.311637 -15.314486
v -6.961130 3.480567 -11.821230
v -6.961130 4.872793 -11.821230
v 6.961130 3.480567 -11.821230
v 6.961130 4.872793 -11.821230
v 6.961130 3.480567 -13.213456
v 6.961130 4.872794 -13.213456
v -6.961130 3.480567 -13.213456
v -6.961130 4.872794 -13.213456
v -6.961130 3.480563 13.144569
v -6.961130 4.872789 13.144569
v 6.961130 3.480563 13.144569
v 6.961130 4.872789 13.144569
v 6.961130 3.480563 11.752343
v 6.961130 4.872789 11.752343
v -6.961130 3.480563 11.752343
v -6.961130 4.872789 11.752343
vn -0.0000 -0.0000 1.0000
vn 1.0000 -0.0000 -0.0000
vn -0.0000 -0.0000 -1.0000
vn -1.0000 -0.0000 -0.0000
vn -0.0000 1.0000 -0.0000
vn -0.0000 -1.0000 -0.0000
s 0
usemtl Mat
f 3//1 4//1 2//1 1//1
f 5//2 6//2 4//2 3//2
f 7//3 8//3 6//3 5//3
f 1//4 2//4 8//4 7//4
f 4//5 6//5 8//5 2//5
f 5//6 3//6 1//6 7//6
f 11//1 12//1 10//1 9//1
f 13//2 14//2 12//2 11//2
f 15//3 16//3 14//3 13//3
f 9//4 10//4 16//4 15//4
f 12//5 14//5 16//5 10//5
f 13//6 11//6 9//6 15//6
f 19//1 20//1 18//1 17//1
f 21//2 22//2 20//2 19//2
f 23//3 24//3 22//3 21//3
f 17//4 18//4 24//4 23//4
f 20//5 22//5 24//5 18//5
f 21//6 19//6 17//6 23//6
f 27//1 28//1 26//1 25//1
f 29//2 30//2 28//2 27//2
f 31//3 32//3 30//3 29//3
f 25//4 26//4 32//4 31//4
f 28//5 30//5 32//5 26//5
f 29//6 27//6 25//6 31//6
f 35//1 36//1 34//1 33//1
f 39//3 40//3 38//3 37//3
f 36//5 38//5 40//5 34//5
f 37//6 35//6 33//6 39//6
f 37//2 38//2 36//2 35//2
f 33//4 34//4 40//4 39//4
f 43//1 44//1 42//1 41//1
f 45//2 46//2 44//2 43//2
f 47//3 48//3 46//3 45//3
f 41//4 42//4 48//4 47//4
f 44//5 46//5 48//5 42//5
f 45//6 43//6 41//6 47//6
f 51//1 52//1 50//1 49//1
f 53//2 54//2 52//2 51//2
f 55//3 56//3 54//3 53//3
f 49//4 50//4 56//4 55//4
f 52//5 54//5 56//5 50//5
f 53//6 51//6 49//6 55//6
